<svg xmlns="http://www.w3.org/2000/svg" viewBox="0 0 1440 200" width="1440" height="200">
<rect width="1440" height="200" fill="#0B0C0E"></rect>
<circle cx="57.6" cy="56.0" r="1" fill="#fff" opacity="0.4"></circle>
<circle cx="115.2" cy="120.0" r="1" fill="#FFD400" opacity="0.5"></circle>
<circle cx="158.4" cy="40.0" r="1" fill="#fff" opacity="0.3"></circle>
<circle cx="216.0" cy="92.0" r="1.5" fill="#FFD400" opacity="0.55"></circle>
<circle cx="259.2" cy="144.0" r="1" fill="#fff" opacity="0.35"></circle>
<circle cx="316.8" cy="32.0" r="1" fill="#fff" opacity="0.45"></circle>
<circle cx="360.0" cy="108.0" r="1" fill="#FFD400" opacity="0.5"></circle>
<circle cx="403.2" cy="72.0" r="1" fill="#fff" opacity="0.3"></circle>
<circle cx="446.4" cy="156.0" r="1" fill="#fff" opacity="0.4"></circle>
<circle cx="489.6" cy="52.0" r="1.5" fill="#FFD400" opacity="0.6"></circle>
<circle cx="547.2" cy="128.0" r="1" fill="#fff" opacity="0.35"></circle>
<circle cx="590.4" cy="84.0" r="1" fill="#fff" opacity="0.45"></circle>
<circle cx="648.0" cy="36.0" r="1" fill="#FFD400" opacity="0.5"></circle>
<circle cx="691.2" cy="140.0" r="1" fill="#fff" opacity="0.3"></circle>
<circle cx="748.8" cy="100.0" r="1.5" fill="#fff" opacity="0.4"></circle>
<circle cx="792.0" cy="60.0" r="1" fill="#FFD400" opacity="0.55"></circle>
<circle cx="835.2" cy="152.0" r="1" fill="#fff" opacity="0.35"></circle>
<circle cx="892.8" cy="44.0" r="1" fill="#fff" opacity="0.45"></circle>
<circle cx="936.0" cy="116.0" r="1" fill="#FFD400" opacity="0.5"></circle>
<circle cx="979.2" cy="80.0" r="1" fill="#fff" opacity="0.3"></circle>
<circle cx="1036.8" cy="136.0" r="1.5" fill="#fff" opacity="0.4"></circle>
<circle cx="1080.0" cy="56.0" r="1" fill="#FFD400" opacity="0.55"></circle>
<circle cx="1123.2" cy="108.0" r="1" fill="#fff" opacity="0.35"></circle>
<circle cx="1180.8" cy="40.0" r="1" fill="#fff" opacity="0.45"></circle>
<circle cx="1224.0" cy="124.0" r="1" fill="#FFD400" opacity="0.5"></circle>
<circle cx="1267.2" cy="76.0" r="1" fill="#fff" opacity="0.3"></circle>
<circle cx="1310.4" cy="148.0" r="1" fill="#fff" opacity="0.4"></circle>
<circle cx="1353.6" cy="52.0" r="1.5" fill="#FFD400" opacity="0.6"></circle>
<circle cx="1382.4" cy="104.0" r="1" fill="#fff" opacity="0.35"></circle>
<g transform="translate(187.2 112.0) scale(0.750)" opacity="0.9"><path d="M12 1 L13.4 9 L21 12 L13.4 15 L12 23 L10.6 15 L3 12 L10.6 9 Z" fill="#FFD400"></path></g>
<g transform="translate(518.4 66.0) scale(0.542)" opacity="0.55"><path d="M12 1 L13.4 9 L21 12 L13.4 15 L12 23 L10.6 15 L3 12 L10.6 9 Z" fill="#fff"></path></g>
<g transform="translate(864.0 132.0) scale(0.625)" opacity="0.8"><path d="M12 1 L13.4 9 L21 12 L13.4 15 L12 23 L10.6 15 L3 12 L10.6 9 Z" fill="#FFD400"></path></g>
<g transform="translate(1137.6 76.0) scale(0.500)" opacity="0.5"><path d="M12 1 L13.4 9 L21 12 L13.4 15 L12 23 L10.6 15 L3 12 L10.6 9 Z" fill="#fff"></path></g>
<g transform="translate(1296.0 108.0) scale(0.667)" opacity="0.85"><path d="M12 1 L13.4 9 L21 12 L13.4 15 L12 23 L10.6 15 L3 12 L10.6 9 Z" fill="#FFD400"></path></g>
</svg>